<svg xmlns="http://www.w3.org/2000/svg" viewBox="0 0 640 180" role="img" aria-label="چيهان البراوي - لغة عربية">
  <defs>
    <linearGradient id="gold" x1="30" x2="145" y1="20" y2="160" gradientUnits="userSpaceOnUse">
      <stop stop-color="#f3d27a"/>
      <stop offset="1" stop-color="#c89436"/>
    </linearGradient>
  </defs>
  <rect width="640" height="180" rx="8" fill="#fffaf0"/>
  <g transform="translate(28 20)">
    <circle cx="70" cy="70" r="68" fill="#2f5d50"/>
    <circle cx="70" cy="70" r="56" fill="#f4ecd8"/>
    <path d="M30 93c18-13 55-13 82 0V39c-24-12-58-12-82 0v54Z" fill="url(#gold)" stroke="#8b5f35" stroke-width="4" stroke-linejoin="round"/>
    <path d="M40 47c18-7 43-7 62 0M40 61c18-7 44-7 62 0M40 75c18-7 44-7 62 0" fill="none" stroke="#23312d" stroke-width="4" stroke-linecap="round"/>
    <circle cx="70" cy="70" r="22" fill="none" stroke="#2f5d50" stroke-width="5"/>
    <path d="M70 42v56M42 70h56M55 54c10 9 20 9 30 0M55 86c10-9 20-9 30 0" fill="none" stroke="#2f5d50" stroke-width="4" stroke-linecap="round"/>
    <path d="M70 56l8 14-8 17-8-17 8-14Z" fill="#8b5f35"/>
  </g>
  <text x="585" y="76" fill="#23312d" font-family="Tahoma, Arial, sans-serif" font-size="44" font-weight="700" text-anchor="end">چيهان البراوي</text>
  <text x="585" y="122" fill="#2f5d50" font-family="Tahoma, Arial, sans-serif" font-size="25" font-weight="700" text-anchor="end">لغة عربية | نحو، نصوص، وبلاغة</text>
</svg>
